<svg xmlns="http://www.w3.org/2000/svg" viewBox="0 0 1100 300" font-family="system-ui, sans-serif" font-size="14">
  <defs>
    <marker id="arrow" viewBox="0 0 10 10" refX="9" refY="5" markerWidth="7" markerHeight="7" orient="auto">
      <path d="M0,0 L10,5 L0,10 z" fill="#333"/>
    </marker>
  </defs>
  <g fill="#ffffff" stroke="#555" stroke-width="1">
    <rect x="10" y="90" width="170" height="80" rx="4"/>
    <rect x="220" y="90" width="190" height="80" rx="4"/>
    <rect x="450" y="90" width="190" height="80" rx="4"/>
    <rect x="680" y="90" width="190" height="80" rx="4"/>
    <rect x="910" y="90" width="180" height="80" rx="4"/>
    <rect x="450" y="215" width="190" height="70" rx="4" stroke-dasharray="4 3"/>
  </g>
  <rect x="450" y="10" width="190" height="56" rx="4" fill="#ffffff" stroke="#2b6cb0" stroke-width="1"/>
  <g fill="#1a1a1a" text-anchor="middle">
    <text x="95" y="122">selected candidate</text>
    <text x="95" y="142">source + DD field</text>
    <text x="315" y="114">resolve in code</text>
    <text x="315" y="134" font-size="13">conventions + DD COCOS label</text>
    <text x="315" y="152" font-size="13">cocos_sign, pint units</text>
    <text x="545" y="114">Jev decision</text>
    <text x="545" y="134" font-size="13">one per open slot:</text>
    <text x="545" y="152" font-size="13">sign, factor, unit, index</text>
    <text x="775" y="122">transform composed</text>
    <text x="775" y="142">by code from slots</text>
    <text x="1000" y="122">validate, then</text>
    <text x="1000" y="142">bind or escalate</text>
    <text x="545" y="245">local-lane model</text>
    <text x="545" y="265" font-size="13">slot not Jev-shaped</text>
    <text x="545" y="33" fill="#2b6cb0">Jev-reranked context</text>
    <text x="545" y="53" font-size="13" fill="#2b6cb0">code, wiki, documents, signals</text>
  </g>
  <g stroke="#333" stroke-width="1.2" fill="none" marker-end="url(#arrow)">
    <line x1="180" y1="130" x2="218" y2="130"/>
    <line x1="410" y1="130" x2="448" y2="130"/>
    <line x1="640" y1="130" x2="678" y2="130"/>
    <line x1="870" y1="130" x2="908" y2="130"/>
    <line x1="545" y1="66" x2="545" y2="88" stroke="#2b6cb0"/>
    <line x1="545" y1="170" x2="545" y2="213"/>
    <path d="M640,250 C700,250 720,200 740,172"/>
  </g>
  <text x="315" y="190" text-anchor="middle" font-size="13" fill="#444">slots it settles skip the model</text>
</svg>
